<svg width="396" height="38" viewBox="0 0 396 38" fill="none" xmlns="http://www.w3.org/2000/svg">
<path d="M0.88 31.46H15.004V30.712L10.428 30.14C9.108 29.964 8.14 28.952 8.14 27.588V6.512L26.312 31.46H28.072V4.444C28.072 3.124 28.996 2.024 30.316 1.848L33.66 1.408V0.659999H19.58V1.408L24.156 1.98C25.476 2.156 26.444 3.168 26.444 4.532V24.86L12.188 5.016C9.24 0.879999 6.16 0.659999 0 0.659999V1.408C2.684 1.804 5.324 2.816 6.468 4.84V27.676C6.468 28.996 5.544 30.096 4.224 30.272L0.88 30.712V31.46Z" fill="black"/>
<path d="M58.475 32.164C67.803 32.164 74.711 25.652 74.711 16.06C74.711 6.468 67.803 0 58.475 0C49.147 0 42.195 6.468 42.195 16.06C42.195 25.652 49.147 32.164 58.475 32.164ZM58.519 30.624C50.423 30.624 46.859 23.628 46.859 15.048C46.859 7.04 50.599 1.54 58.431 1.54C66.351 1.54 70.003 8.404 70.003 16.72C70.003 24.992 66.659 30.624 58.519 30.624Z" fill="black"/>
<path d="M97.7598 16.588H98.5518C103.084 29.128 110.828 34.76 115.272 37.532C109.024 28.996 105.812 23.364 102.952 16.192C108.32 15.268 111.268 12.76 111.268 8.404C111.268 2.86 106.252 0.659999 97.3197 0.659999H84.1198V1.408L86.9357 1.76C88.2557 1.936 89.2237 2.948 89.2237 4.312V27.808C89.2237 29.172 88.2557 30.184 86.9357 30.36L84.1198 30.712V31.46H98.6837V30.712L95.8678 30.36C94.5478 30.184 93.5798 29.172 93.5798 27.808V16.588H97.7598ZM93.5798 2.2H98.4197C104.404 2.2 107.088 4.268 107.088 8.624C107.088 12.98 104.096 15.048 97.7158 15.048H93.5798V2.2Z" fill="black"/>
<path d="M123.299 31.46H137.423C148.335 31.46 155.331 25.916 155.331 16.148C155.331 5.896 148.335 0.659999 137.423 0.659999H123.299V1.408L126.115 1.76C127.435 1.936 128.403 2.948 128.403 4.312V27.808C128.403 29.172 127.435 30.184 126.115 30.36L123.299 30.712V31.46ZM135.047 29.92C133.727 29.92 132.759 29.172 132.759 27.808V2.2H137.071C143.759 2.2 150.667 4.972 150.667 16.148C150.667 26.488 144.551 29.92 137.071 29.92H135.047Z" fill="black"/>
<path d="M165.013 31.46H179.577V30.712L176.761 30.36C175.441 30.184 174.473 29.172 174.473 27.808V4.312C174.473 2.948 175.441 1.936 176.761 1.76L179.577 1.408V0.659999H165.013V1.408L167.829 1.76C169.149 1.936 170.117 2.948 170.117 4.312V27.808C170.117 29.172 169.149 30.184 167.829 30.36L165.013 30.712V31.46Z" fill="black"/>
<path d="M205.708 32.12C210.812 32.12 216.268 30.184 219.832 26.84V24.508C216.4 27.72 211.692 29.348 207.028 29.348C200.12 29.348 194.444 24.332 194.444 16.06C194.444 7.392 198.404 1.54 205.708 1.54C213.012 1.54 215.828 6.952 214.86 16.456H215.916L218.556 4.708C216.048 1.848 209.228 0 205.708 0C196.072 0 189.56 6.468 189.56 16.06C189.56 25.696 196.116 32.12 205.708 32.12Z" fill="black"/>
<path d="M262.502 16.588H263.294C267.826 29.128 275.57 34.76 280.014 37.532C273.766 28.996 270.554 23.364 267.694 16.192C273.062 15.268 276.01 12.76 276.01 8.404C276.01 2.86 270.994 0.659999 262.062 0.659999H248.862V1.408L251.678 1.76C252.998 1.936 253.966 2.948 253.966 4.312V27.808C253.966 29.172 252.998 30.184 251.678 30.36L248.862 30.712V31.46H263.426V30.712L260.61 30.36C259.29 30.184 258.322 29.172 258.322 27.808V16.588H262.502ZM258.322 2.2H263.162C269.146 2.2 271.83 4.268 271.83 8.624C271.83 12.98 268.838 15.048 262.458 15.048H258.322V2.2Z" fill="black"/>
<path d="M304.024 32.164C313.352 32.164 320.26 25.652 320.26 16.06C320.26 6.468 313.352 0 304.024 0C294.696 0 287.744 6.468 287.744 16.06C287.744 25.652 294.696 32.164 304.024 32.164ZM304.068 30.624C295.972 30.624 292.408 23.628 292.408 15.048C292.408 7.04 296.148 1.54 303.98 1.54C311.9 1.54 315.552 8.404 315.552 16.72C315.552 24.992 312.208 30.624 304.068 30.624Z" fill="black"/>
<path d="M344.301 32.12C350.901 32.12 355.565 28.776 355.565 23.936C355.565 12.1 337.349 13.508 337.349 6.952C337.349 3.828 340.517 1.54 345.225 1.54C350.637 1.54 352.661 4.444 353.189 12.1H354.201L354.641 2.112C352.045 0.968 348.745 0 345.225 0C338.361 0 334.093 3.08 334.093 7.392C334.093 18.876 352.397 17.072 352.397 24.596C352.397 28.116 348.789 30.58 344.741 30.58C339.065 30.58 336.777 27.544 335.721 18.832H334.709L333.829 29.26C336.865 30.932 339.681 32.12 344.301 32.12Z" fill="black"/>
<path d="M366.571 31.46H394.511L395.831 21.076H395.083C392.399 28.028 390.551 29.92 386.635 29.92H378.319C376.999 29.92 376.031 29.172 376.031 27.808V16.588H386.371C387.559 16.588 388.746 17.424 388.835 18.568L389.319 23.716H390.067V8.36H389.319L388.835 13.068C388.703 14.256 387.559 15.048 386.371 15.048H376.031V2.2H385.755C389.011 2.2 391.827 3.74 393.587 11.088H394.335L393.455 0.659999H366.571V1.408L369.387 1.76C370.707 1.936 371.675 2.948 371.675 4.312V27.808C371.675 29.172 370.707 30.184 369.387 30.36L366.571 30.712V31.46Z" fill="black"/>
</svg>
